<?xml version="1.0" encoding="UTF-8"?>
<svg id="a" data-name="SGR" xmlns="http://www.w3.org/2000/svg" width="3663.372" height="2500" viewBox="0 0 3663.372 2500">
  <circle cx="1831.686" cy="1250" r="1216.027" fill="#fff"/>
  <path d="M1831.686,33.973c671.593,0,1216.027,544.434,1216.027,1216.027s-544.434,1216.027-1216.027,1216.027S615.659,1921.594,615.659,1250,1160.092,33.973,1831.686,33.973M1831.686,0c-168.734,0-332.438,33.054-486.567,98.245-74.076,31.331-145.518,70.108-212.345,115.255-66.182,44.712-128.415,96.059-184.972,152.616-56.557,56.557-107.904,118.791-152.616,184.973-45.147,66.826-83.925,138.269-115.255,212.344-65.191,154.128-98.246,317.833-98.246,486.567s33.055,332.439,98.246,486.567c31.33,74.075,70.109,145.518,115.255,212.344,44.712,66.182,96.059,128.416,152.616,184.973,56.557,56.556,118.79,107.904,184.972,152.616,66.827,45.147,138.269,83.924,212.345,115.255,154.128,65.191,317.832,98.245,486.567,98.245s332.438-33.054,486.567-98.245c74.076-31.331,145.518-70.109,212.345-115.255,66.182-44.712,128.415-96.059,184.972-152.616,56.557-56.557,107.904-118.791,152.616-184.973,45.147-66.826,83.925-138.269,115.255-212.344,65.191-154.128,98.246-317.833,98.246-486.567s-33.055-332.439-98.246-486.567c-31.33-74.075-70.109-145.518-115.255-212.344-44.712-66.182-96.059-128.416-152.616-184.973-56.557-56.556-118.79-107.904-184.972-152.616-66.827-45.147-138.269-83.924-212.345-115.255C2164.124,33.054,2000.42,0,1831.686,0h0Z" fill="#30378c"/>
  <g>
    <path d="M878.766,1030.448c-7.388-7.028-16.752-11.477-28.092-13.349-7.735-1.172-14.812-.862-21.225.931-6.415,1.794-12.219,4.814-17.416,9.059-5.195,4.247-9.842,9.511-13.939,15.789-4.096,6.279-7.695,13.319-10.797,21.118l-6.642,16.024c-1.549,3.901-3.258,7.528-5.124,10.882-1.866,3.355-3.905,6.247-6.119,8.679-2.213,2.433-4.681,4.221-7.402,5.365s-5.731,1.392-9.032.741c-3.984-.635-7.359-2.365-10.127-5.19-2.769-2.823-4.691-6.581-5.769-11.273-1.077-4.689-1.106-10.235-.085-16.633,1.501-9.417,4.714-16.548,9.634-21.396,4.92-4.847,11.091-7.051,18.509-6.61l5.995-37.575c-11.074-1.582-21.264-.174-30.57,4.222-9.304,4.397-17.132,11.365-23.482,20.905-6.352,9.541-10.623,21.191-12.819,34.954-2.158,13.522-1.728,25.97,1.284,37.344,3.014,11.375,8.233,20.764,15.654,28.169,7.423,7.405,16.751,11.973,27.989,13.704,13.692,2.248,25.305-.512,34.837-8.276,9.535-7.763,17.449-19.159,23.746-34.186l8.291-19.383c2.709-6.499,5.433-11.93,8.17-16.29,2.739-4.359,5.721-7.537,8.949-9.529,3.226-1.991,6.922-2.656,11.088-1.991,4.467.712,8.203,2.701,11.21,5.966,3.007,3.265,5.084,7.513,6.231,12.74,1.148,5.229,1.191,11.161.133,17.801-1.08,6.761-3.085,12.646-6.022,17.656-2.934,5.01-6.722,8.769-11.361,11.278-4.64,2.51-10.104,3.48-16.388,2.91l-6.053,37.937c13.388,1.827,25.088.367,35.099-4.382,10.011-4.747,18.194-12.292,24.549-22.637,6.353-10.344,10.726-23.001,13.113-37.971,2.409-15.09,2.188-28.356-.66-39.798-2.847-11.441-7.966-20.676-15.356-27.705Z" fill="#30378c"/>
    <path d="M878.709,906.975c4.807-13.601,6.401-26.085,4.779-37.453-1.621-11.368-6.031-21.177-13.227-29.427-7.198-8.249-16.675-14.453-28.431-18.609-11.758-4.156-23.026-5.335-33.807-3.539-10.782,1.797-20.394,6.519-28.835,14.167-8.442,7.649-15.036,18.187-19.783,31.614l-24.692,69.847,177.038,62.587,13.232-37.431-57.399-20.292,11.124-31.466ZM787.471,881.722c2.568-7.262,5.91-12.822,10.031-16.682,4.121-3.858,8.797-6.177,14.03-6.953,5.234-.776,10.789-.124,16.668,1.954,5.821,2.058,10.552,5.044,14.193,8.956,3.641,3.913,5.884,8.662,6.732,14.244.846,5.584-.003,11.977-2.551,19.18l-8.984,25.415-59.043-20.873,8.924-25.242Z" fill="#30378c"/>
    <rect x="880.281" y="680.891" width="39.701" height="187.777" transform="translate(-199.422 1223.668) rotate(-62.927)" fill="#30378c"/>
    <polygon points="1005.624 713.87 968.619 688.556 1013.968 622.265 986.953 603.783 941.604 670.075 904.673 644.812 953.698 573.147 926.682 554.666 855.242 659.098 1010.224 765.119 1081.872 660.386 1054.857 641.904 1005.624 713.87" fill="#30378c"/>
    <polygon points="1108.714 581.661 996.738 474.422 969.278 503.095 1104.893 632.974 1188.034 546.161 1164.394 523.521 1108.714 581.661" fill="#30378c"/>
    <path d="M1299.96,365.375l-13.823-19.196-63.762,45.921,17.467,24.255,32.71-23.558c4.252,6.182,6.722,12.473,7.364,18.877.677,6.745-.639,13.286-3.946,19.622-3.308,6.338-8.608,12.131-15.898,17.382-8.035,5.788-16.406,8.861-25.113,9.216-8.707.358-17.351-2.022-25.934-7.141-8.583-5.117-16.696-12.984-24.34-23.598-7.644-10.614-12.483-20.783-14.515-30.507-2.03-9.723-1.5-18.636,1.591-26.738,3.092-8.103,8.53-14.958,16.318-20.566,4.167-3.001,8.347-5.221,12.546-6.663,4.197-1.441,8.354-2.154,12.468-2.143,4.114.014,8.123.742,12.026,2.186,3.903,1.446,7.68,3.604,11.328,6.474l32.737-23.577c-6.471-6.789-13.801-11.998-21.991-15.63-8.19-3.63-16.817-5.646-25.881-6.049-9.065-.401-18.221.825-27.464,3.678-9.245,2.854-18.182,7.388-26.812,13.603-10.071,7.252-18.151,15.746-24.245,25.484-6.095,9.738-9.961,20.32-11.6,31.744-1.641,11.426-.766,23.282,2.623,35.568,3.387,12.289,9.528,24.605,18.423,36.956,11.574,16.071,24.58,27.776,39.021,35.116,14.438,7.341,29.341,10.28,44.709,8.816,15.367-1.463,30.194-7.339,44.48-17.627,12.796-9.216,22.288-19.988,28.475-32.316,6.187-12.327,8.652-25.326,7.393-38.996-1.257-13.67-6.708-27.201-16.354-40.593Z" fill="#30378c"/>
    <polygon points="1396.966 366.239 1378.098 325.567 1450.959 291.767 1437.184 262.074 1364.324 295.874 1345.494 255.285 1424.26 218.746 1410.485 189.052 1295.706 242.299 1374.726 412.639 1489.839 359.239 1476.064 329.546 1396.966 366.239" fill="#30378c"/>
    <polygon points="1629.911 127.141 1607.429 261.623 1605.283 262.111 1526.91 150.537 1479.166 161.381 1520.757 344.494 1558.31 335.964 1531.137 216.333 1532.658 215.988 1607.015 323.961 1632.585 318.153 1653.105 189.1 1654.625 188.754 1681.697 307.938 1719.249 299.409 1677.656 116.296 1629.911 127.141" fill="#30378c"/>
    <polygon points="1793.881 266.074 1793.155 221.245 1873.463 219.943 1872.933 187.214 1792.624 188.516 1791.899 143.779 1878.715 142.371 1878.184 109.643 1751.672 111.695 1754.716 299.446 1881.597 297.389 1881.066 264.661 1793.881 266.074" fill="#30378c"/>
    <rect x="1855.335" y="191.126" width="187.777" height="39.701" transform="translate(1522.555 2124.595) rotate(-83.608)" fill="#30378c"/>
    <polygon points="2157.861 157.269 2128.035 271.534 2126.437 271.118 2077.839 136.381 2044.128 127.582 1996.702 309.271 2035.116 319.297 2064.965 204.944 2066.295 205.291 2115.491 340.278 2148.671 348.939 2196.097 167.25 2157.861 157.269" fill="#30378c"/>
    <path d="M2366.357,302.451c4.683-10.159,6.25-20.326,4.701-30.5-1.551-10.174-5.987-19.669-13.31-28.483-7.325-8.815-17.267-16.243-29.826-22.285-12.338-5.936-24.388-9.088-36.149-9.455-11.763-.367-22.253,1.947-31.471,6.939-9.22,4.994-16.266,12.625-21.14,22.898-6.071,12.478-6.75,24.395-2.039,35.75,4.711,11.356,13.365,22.2,25.962,32.534l16.2,13.491c5.453,4.455,9.877,8.618,13.272,12.49,3.394,3.871,5.584,7.638,6.569,11.3.985,3.663.564,7.393-1.264,11.195-1.962,4.077-4.937,7.087-8.926,9.035-3.988,1.947-8.652,2.722-13.989,2.325-5.338-.396-11.036-2.053-17.094-4.967-6.169-2.968-11.234-6.575-15.195-10.821s-6.479-8.95-7.556-14.115c-1.077-5.164-.445-10.676,1.901-16.535l-34.62-16.655c-5.582,12.306-7.529,23.934-5.844,34.885,1.684,10.951,6.571,20.951,14.666,30,8.095,9.048,18.97,16.859,32.632,23.431,13.77,6.625,26.543,10.209,38.322,10.755,11.778.545,22.091-1.717,30.94-6.787,8.848-5.069,15.79-12.769,20.828-23.098,3.336-7.077,5.064-13.945,5.182-20.603.116-6.659-1.116-13.086-3.699-19.28-2.583-6.193-6.297-12.152-11.139-17.874-4.845-5.722-10.56-11.185-17.146-16.388l-13.453-10.949c-3.294-2.602-6.28-5.276-8.961-8.025-2.681-2.747-4.869-5.53-6.566-8.347-1.697-2.817-2.704-5.692-3.022-8.628-.318-2.934.305-5.89,1.874-8.866,1.748-3.635,4.373-6.375,7.871-8.219,3.498-1.844,7.649-2.611,12.453-2.302,4.801.309,10.122,1.869,15.961,4.678,8.594,4.134,14.508,9.252,17.746,15.353,3.235,6.102,3.581,12.645,1.037,19.627l34.29,16.496Z" fill="#30378c"/>
    <path d="M2507.627,487.177l-32.044-24.207c-3.737,3.464-7.72,6.056-11.947,7.779-4.228,1.722-8.578,2.61-13.045,2.664-4.469.053-8.948-.722-13.435-2.324-4.489-1.602-8.861-3.997-13.118-7.183-7.587-5.677-12.876-12.536-15.867-20.576-2.993-8.04-3.364-16.906-1.111-26.598,2.251-9.69,7.387-19.895,15.407-30.613,7.8-10.424,16.028-18.104,24.685-23.04,8.654-4.936,17.308-7.164,25.959-6.685,8.647.479,16.865,3.63,24.647,9.454,4.305,3.222,7.848,6.829,10.628,10.816,2.779,3.989,4.728,8.195,5.846,12.62,1.116,4.424,1.364,8.941.74,13.55-.627,4.61-2.201,9.215-4.726,13.814l32.153,24.06c5.491-9.48,8.939-18.963,10.349-28.444,1.407-9.483.97-18.721-1.305-27.716-2.279-8.995-6.234-17.509-11.866-25.541-5.632-8.031-12.804-15.308-21.515-21.825-13.214-9.888-27.367-15.765-42.461-17.632-15.095-1.865-30.028.645-44.8,7.531-14.773,6.887-28.293,18.527-40.562,34.922-12.232,16.346-19.604,32.549-22.117,48.609-2.513,16.061-.768,31.071,5.239,45.031,6.005,13.961,15.714,25.958,29.124,35.992,9.639,7.214,19.38,12.23,29.219,15.051,9.837,2.82,19.41,3.8,28.719,2.939,9.308-.86,18.005-3.247,26.087-7.162,8.083-3.915,15.122-9.012,21.117-15.289Z" fill="#30378c"/>
    <polygon points="2712.527 526.018 2654.465 577.315 2601.104 516.918 2659.164 465.621 2632.878 435.868 2492.157 560.197 2518.444 589.949 2576.573 538.591 2629.936 598.988 2571.805 650.347 2598.031 680.03 2738.751 555.701 2712.527 526.018" fill="#30378c"/>
    <path d="M2809.032,663.374l-195.206,36.836,21.099,36.942,44.089-9.139,33.624,58.873-30.288,33.308,21.099,36.943,130.954-149.336-25.372-44.427ZM2734.559,762.779l-23.633-41.381,73.168-15.167.727,1.274-50.262,55.275Z" fill="#30378c"/>
    <polygon points="2823.038 966.57 2853.965 955.851 2828.953 883.686 2871.23 869.033 2898.944 948.995 2929.871 938.275 2889.155 820.802 2711.734 882.296 2724.736 919.808 2798.026 894.405 2823.038 966.57" fill="#30378c"/>
    <polygon points="2944.638 992.833 2912.316 998 2921.389 1054.768 2768.29 1079.24 2774.484 1117.99 2927.584 1093.518 2936.657 1150.286 2968.98 1145.119 2944.638 992.833" fill="#30378c"/>
  </g>
  <g>
    <path d="M1271.433,2058.478c1.592-10.494.027-20.846-4.696-31.06-4.723-10.212-12.63-19.737-23.72-28.575l-57.936-46.172-116.926,146.929,31.047,24.743,41.45-52.085,22.664,18.061-13.634,74.254,34.273,27.314,14.273-81.93c.612.166,1.227.359,1.838.505,10.928,2.614,21.283,2.092,31.066-1.563,9.78-3.654,18.556-10.361,26.321-20.118,7.727-9.707,12.385-19.81,13.981-30.303ZM1232.389,2048.643c-.728,4.892-3.034,9.775-6.916,14.654-3.845,4.832-8.029,8.1-12.554,9.81-4.524,1.71-9.394,1.815-14.606.317-5.215-1.496-10.786-4.608-16.713-9.333l-21.081-16.799,35.398-44.481,20.938,16.686c5.975,4.762,10.24,9.588,12.795,14.477,2.553,4.889,3.467,9.779,2.739,14.669Z" fill="#30378c"/>
    <path d="M1364.3,2214.693c-3.344,6.323-7.71,11.204-13.091,14.644-5.385,3.442-11.343,5.229-17.879,5.36s-13.204-1.607-20.009-5.217c-6.751-3.58-11.92-8.122-15.508-13.622-3.59-5.501-5.474-11.449-5.653-17.839-.179-6.393,1.405-12.75,4.749-19.07l55.455-104.783-35.073-18.604-57.04,107.782c-6.405,12.103-9.147,24.209-8.226,36.322.919,12.111,5.2,23.429,12.841,33.951,7.641,10.524,18.347,19.435,32.117,26.74,13.715,7.274,27.065,11.121,40.054,11.54,12.987.42,24.758-2.384,35.311-8.41,10.555-6.027,19.033-15.089,25.44-27.191l57.039-107.782-35.071-18.602-55.455,104.781Z" fill="#30378c"/>
    <polygon points="1612.58 2312.449 1610.983 2312.036 1610.667 2176.915 1574.714 2167.629 1508.784 2285.352 1507.274 2284.961 1509.909 2150.888 1467.919 2140.039 1472.837 2335.251 1510.299 2344.929 1575.63 2235.005 1577.05 2235.372 1580.875 2363.161 1618.336 2372.839 1717.463 2204.505 1675.473 2193.656 1612.58 2312.449" fill="#30378c"/>
    <polygon points="1728.996 2387.39 1855.817 2391.751 1856.965 2359.039 1769.82 2356.041 1771.393 2311.233 1851.663 2313.994 1852.811 2281.282 1772.539 2278.521 1774.108 2233.806 1860.885 2236.79 1862.032 2204.077 1735.577 2199.727 1728.996 2387.39" fill="#30378c"/>
    <path d="M2017.179,2301.28c9.44-6.088,16.22-13.927,20.341-23.519,4.119-9.593,5.335-20.568,3.648-32.923-1.677-12.294-5.759-22.645-12.244-31.052-6.484-8.407-15.051-14.435-25.695-18.085-10.648-3.649-22.998-4.525-37.05-2.628l-73.418,9.921,25.402,186.05,39.342-5.317-9.004-65.954,28.719-3.882,44.252,61.193,43.431-5.869-49.36-66.961c.543-.327,1.107-.638,1.636-.978ZM1936.495,2229.838l26.531-3.583c7.571-1.025,14.007-.768,19.307.766,5.298,1.536,9.465,4.258,12.496,8.165,3.032,3.908,4.97,8.951,5.814,15.128.834,6.118.307,11.401-1.584,15.85-1.891,4.451-5.181,8.04-9.865,10.771-4.686,2.73-10.786,4.603-18.297,5.617l-26.713,3.61-7.689-56.325Z" fill="#30378c"/>
    <polygon points="2198.857 2132.568 2052.144 2180.093 2062.238 2211.229 2116.927 2193.515 2164.74 2341.003 2202.072 2328.91 2154.259 2181.422 2208.951 2163.707 2198.857 2132.568" fill="#30378c"/>
    <path d="M2268.363,2097.109l33.717,195.831,37.257-20.538-8.435-44.244,59.378-32.729,32.808,30.808,37.257-20.538-147.176-133.288-44.807,24.698ZM2324.798,2196.136l-13.997-73.423,1.286-.708,54.447,51.127-41.735,23.005Z" fill="#30378c"/>
    <polygon points="2576.779 2071.823 2514.186 2122.446 2416.768 2001.829 2385.899 2026.796 2503.885 2172.877 2597.345 2097.288 2576.779 2071.823" fill="#30378c"/>
  </g>
  <circle cx="1831.686" cy="1250" r="873.274" fill="#30378c"/>
  <g>
    <g>
      <path d="M2065.481,1292.378c-18.871,47.001-37.488,94.546-36.589,146.151,1.208,69.474,7.747,138.609,17.141,207.506,7.201,52.828,5.927,105.791-34.568,146.015-41.497,41.209-91.234,70.222-150.94,78.018-83.794,10.939-147.46-25.106-198.113-87.65-51.468-63.529-80.99-137.726-99.37-216.814-26.531-114.25-39.51-230.046-38.541-347.218,1.07-127.754,16.799-253.522,59.741-374.566,21.895-61.779,47.97-121.588,89.723-173.55,56.649-70.544,129.725-85.509,208.219-40.462,10.31,5.911,17.648,6.166,27.042-3.329,27.585-27.892,50.551-24.155,68.234,10.701,23.764,46.764,32.749,98.079,42.041,148.903,9.087,49.736,14.506,100.101,14.183,150.924-.119,20.401-4.383,39.799-10.514,58.909-6.337,19.789-20.095,33.004-40.718,33.854-19.67.815-31.441-12.689-40.324-29.658-24.036-45.914-41.94-94.801-68.302-139.577-8.918-15.169-18.532-29.624-31.307-41.956-20.316-19.619-35.96-19.925-56.836.034-30.031,28.724-47.222,64.837-57.108,104.347-25.717,102.971-28.656,207.709-23.474,313.143,3.465,70.867,12.297,140.953,31.509,209.102,15.644,55.41,34.719,110.055,71.751,155.986.425.493.763,1.053,1.155,1.563,10.753,14.574,24.375,30.338,42.585,25.361,17.988-4.909,15.016-27.042,15.95-41.973,2.004-31.68.629-63.614.629-103.617,1.199-68.224-5.079-122.624-33.599-184.234-20.909-45.15-7.355-89.96,12.587-132.511,7.881-16.834,23.408-16.426,38.372-12.094,15.372,4.468,29.607,12.485,45.659,15.033,22.134,3.55,42.161-3.38,62-11.975,39.664-17.19,60.965-6.778,74.604,34.992,11.126,34.058,10.6,67.232-2.82,100.644Z" fill="#fbfbfa"/>
      <path d="M2610.846,1446.53c-1.037-41.073-23.509-47.919-56.803-23.696-2.581,1.885-5.3,3.584-8.815,5.928-15.152-30.389-23.748-62.238-32.938-93.697-9.885-33.803-23.967-65.601-40.24-96.601-6.71-12.808-26.312-21.963-22.915-34.907,3.261-12.4,19.501-21.607,30.423-31.764,45.014-41.787,70.697-93.901,79.836-153.897,8.918-58.501,2.989-116.153-15.016-172.598-17.446-54.628-46.372-101.035-94.021-134.634-48.104-33.922-108.933-32.75-145.419,5.317-7.815,8.153-18.295,13.793-28.928,21.607-3.228-21.59-11.109-39.986-18.94-58.212-15.542-36.215-44.878-39.408-68.267-8.103-1.938,2.599-3.618,5.368-5.419,8.069-19.025,28.503-42.177,50.891-78.799,53.643-10.464.781-19.466,7.151-23.323,15.407-23.185,49.634-30.099,102.445-6.607,152.198,24.867,52.59,39.935,105.757,39.867,163.715-.153,150.125-1.171,300.268.868,450.376.882,63.869-6.099,124.884-30.798,184.251-14.709,35.281-14.591,72.073,3.041,107.558,13.199,26.618,35.587,35.077,58.434,16.8,37.455-29.964,79.003-36.113,124.374-30.066,22.558,2.99,39.664-6.013,49.176-26.363,19.569-41.922,25.071-83.913-.798-126.056-17.462-28.435-29.064-58.654-30.303-93.136-2.21-61.694-1.342-123.406-3.092-185.066-.594-20.452,10.429-27.331,25.088-33.565,9.462-4.026,15.628-1.359,18.499,9.563,21.895,83.369,37.251,168.131,55.138,252.35,8.477,39.782,18.99,79.428,39.477,115.167,14.438,25.174,36.758,36.096,61.353,31.968,21.828-3.669,40.767-12.927,54.647-30.592,60.419-76.914,73.534-167.689,71.223-260.961ZM2327.718,1122.345c-11.942,13.453-24.766,26.108-37.168,39.12-1.528-.934-3.041-1.868-4.568-2.803,0-72.617-.103-145.25.101-217.884.018-13.012,21.472-40.886,33.379-44.691,12.571-4.026,28.028,6.421,37.081,25.055,31.866,65.703,20.569,145.539-28.825,201.203Z" fill="#fbfbfa"/>
      <path d="M1509.806,1538.545c-11.67,65.312-25.886,129.164-68.183,183.64-48.411,62.323-109.935,71.784-177.185,46.118-87.87-33.548-153.064-95.837-203.972-173.669-17.037-26.04-20.35-52.709-5.759-82.605,16.749-34.33,28.572-70.901,34.754-108.985,1.767-10.837,4.451-21.454,9.037-31.679,11.109-24.732,23.17-35.23,44.283-33.514,22.32,1.834,38.644,13.708,47.069,34.924,8.851,22.286,14.014,45.676,19.602,68.914,8.375,34.771,20.129,68.285,37.235,99.778,7.864,14.506,17.937,27.093,32.443,35.502,24.257,14.065,41.973,8.357,52.25-17.989,23.696-60.777,23.288-153.778-43.45-217.562-47.291-45.2-96.432-88.516-141.327-136.417-42.432-45.286-63.665-97.468-70.119-158.16-9.138-86.07,10.022-166.517,47.239-242.786,22.303-45.727,52.318-86.8,99.285-111.465,31.731-16.664,64.684-21.862,99.098-8.34,8.596,3.38,15.644,3.346,20.672-6.625,17.683-35.145,59.283-38.032,84.559,3.703,26.822,44.283,41.379,93.289,50.806,143.908,4.298,23,7.083,46.152,7.763,69.576.305,28.214-3.517,55.8-16.749,81.059-16.477,31.459-47.393,35.111-71.444,9.257-11.195-12.06-18.771-26.414-24.921-41.345-12.705-30.83-30.184-58.858-49.803-85.475-22.814-30.966-49.737-29.132-68.626,4.467-24.799,44.046-19.806,109.97,27.264,144.724,63.92,47.188,127.941,95.633,174.416,162.322,33.072,47.443,50.619,100.831,57.226,157.328,8.256,70.391,9.105,141.106-3.465,211.395Z" fill="#fbfbfa"/>
    </g>
    <path d="M1980.882,981.332c-21.415-44.316-40.423-85.305-60.963-125.524-12.639-24.732-27.649-47.944-47.211-68.473-36.759-38.557-83.584-31.225-116.147-.088-47.612,45.502-66.92,103.622-78.415,165.353-23.023,123.585-21.98,248.001-7.951,372.344,10.973,97.307,35.06,191.143,85.542,276.269,11.728,19.792,25.902,38.393,44.346,53.387,14.466,11.768,30.773,16.129,48.498,16.887,25.414,1.079,41.746-9.479,51.342-33.092,7.382-18.174,11.407-37.219,11.469-56.858.208-61.747.489-123.479-.037-185.215-.193-22.891-9.285-43.919-17.645-64.882-6.226-15.629-11.381-31.808-18.856-46.829-13.183-26.493-4.127-51.922,1.324-77.759,2.432-11.59,10.729-8.334,16.566-5.49,39.599,19.227,78.349,11.973,116.162-4.258,12.192-5.221,15.859-2.162,19.37,8.72,7.688,23.792,7.24,46.942-1.816,70.362-12.1,31.265-26.941,62.082-34.003,94.517-6.818,31.302-6.92,64.204-5.465,96.858,3.048,68.794,11.021,137.074,18.801,205.379,6.624,58.232-21.528,94.748-68.998,123.428-53.219,32.151-108.035,45.451-166.294,19.639-49.143-21.775-81.269-62.661-107.522-108.448-47.959-83.671-66.041-175.772-80.292-269.761-13.489-89.05-17.539-178.24-14.273-267.833,5.312-145.845,33.668-286.546,101.677-417.113,15.462-29.682,34.867-57.025,61.207-79.275,44.113-37.269,80.318-31.972,125.524-9.453,9.851,4.9,19.522,9.891,30.018,13.106,15.432,4.721,29.785,3.165,40.912-9.57,10.467-11.983,16.322-6.803,19.65,4.991,9.172,32.333,19.792,64.433,26.11,97.346,10.121,52.848,17.478,106.221,17.671,160.29.051,16.165-.207,32.06-10.302,51.043h0ZM2247.388,1454.857c-1.006,0,1.002,0,0,0,0-31.844.23-64.113-3.835-95.428-4.925-37.915,16.22-54.186,44.769-67.201,42.997-19.599,70.558-9.143,81.273,32.694,12.68,49.526,24.397,99.3,34.003,149.574,12.256,64.113,24.524,128.262,46.081,190.202,12.297,35.33,33.734,41.594,57.346,13.143,47.098-56.756,58.287-125.356,60.063-196.465.258-10.277-5.608-9.297-12.771-8.32-20.86,2.84-37.08-4.604-46.697-23.678-18.921-37.543-28.218-78.557-41.813-118.025-13.066-37.929-25.286-76.395-60.46-100.948-25.8-18.017-24.95-30.956.707-50.263,50.041-37.656,90.785-82.658,106.76-145.561,15.341-60.409,8.965-119.877-9.428-178.306-14.328-45.552-39.136-84.703-79.727-111.532-23.832-15.768-50.478-23.471-76.472-6.264-20.835,13.8-41.9,28.295-56.099,50.019-7.795,11.921-16.902,22.133-33.22,17.823-16.128-4.243-15.512-19.033-18.316-31.239-4.04-17.631-6.136-35.804-11.422-53.027-5.99-19.562-7.999-19.354-20.601-3.795-21.156,26.121-44.204,49.388-80.099,53.504-10.867,1.247-14.932,9.22-17.222,18.495-8.283,33.554-7.55,65.757,6.996,98.477,21.029,47.354,38.031,95.866,38.947,149.228,2.661,155.98-.772,311.971,1.888,467.9,1.236,72.228-4.95,142.141-33.85,209.149-7.215,16.745-9.311,35.083-5.363,53.515,2.676,12.486,8.528,16.179,19.741,8.024,20.361-14.827,43.639-21.991,68.229-26.249,18.79-3.266,37.463-2.767,56.089-.284,15.458,2.059,21.888-4.911,25.888-19.11,7.254-25.725,5.724-48.9-8.823-72.432-17.08-27.602-31.316-57.31-32.307-90.646-1.119-37.619-.256-66.854-.256-104.51v-8.462ZM2244.504,1063.032c-.037-42.854,0-85.695-.051-128.55-.026-26.596,35.473-72.856,61.619-80.136,31.407-8.735,66.067,7.729,84.547,40.164,42.519,74.659,33.004,180.636-22.52,246.535-24.641,29.246-51.816,55.845-83.712,77.423-9.132,6.175-17.492,10.817-28.629,5.621-12.023-5.607-11.189-16.347-11.203-26.675-.102-44.794-.051-89.588-.051-134.383h0ZM1387.385,693.842c-11.163,7.576-14.134,15.589-17.543,23.227-12.217,27.317-15.29,29.031-42.622,14.78-31.611-16.5-62.414-16.657-92.06,2.854-18.983,12.487-34.685,28.849-48.294,47.43-36.511,49.84-53.912,106.673-64.82,166.567-17.875,98.207,2.727,183.297,79.122,251.949,39.217,35.264,76.938,72.213,114.839,108.921,76.085,73.654,88.189,162.396,56.949,259.036-20.977,64.882-83.314,78.192-133.614,32.008-28.411-26.095-42.855-59.828-54.762-94.568-11.936-34.853-19.909-71.043-30.135-106.501-1.852-6.391-3.908-16.052-11.794-15.614-6.212.347-7.113,9.621-8.925,15.705-.747,2.479-1.404,5.002-1.826,7.562-7.036,42.417-19.741,83.161-38.342,121.819-7.368,15.305-6.493,28.604,2.432,42.017,46.595,70.069,105.064,126.424,184.609,157.872,45.939,18.145,90.876,10.044,118.36-21.567,25.877-29.764,42.122-64.514,53.103-102.389,22.931-79.02,28.101-159.695,22.443-241.044-5.079-73.023-24.783-140.789-75.546-197.483-41.747-46.646-89.14-87.043-139.954-121.973-63.303-43.497-75.352-123.362-49.078-188.725,27.572-68.586,97.769-83.442,142.615-29.516,13.558,16.307,23.77,35.407,35.447,53.271,15.844,24.243,23.894,52.848,44.575,80.78,25.852-98.593-5.042-181.816-45.181-266.418h0Z" fill="#e11e1c"/>
  </g>
</svg>